<svg width="207" height="36" viewBox="0 0 207 36" fill="none" xmlns="http://www.w3.org/2000/svg">
<path d="M48.6445 27.9906V34.4658L43.7049 28.2636L27.4873 28.1527V23.6056H40.2498L27.4617 6.3301V0L48.6445 27.9906Z" fill="#335062"/>
<path d="M9.60605 34.1672V4.19732L0 5.81823V0H24.0834V5.81823L14.5285 4.19732V34.1672H9.60605Z" fill="#335062"/>
<path d="M56.808 16V5.904H53.464V4.8H61.496V5.904H58.152V16H56.808ZM67.647 16.192C66.5483 16.192 65.583 15.952 64.751 15.472C63.9297 14.9813 63.2843 14.2987 62.815 13.424C62.3563 12.5493 62.127 11.5413 62.127 10.4C62.127 9.25867 62.3563 8.256 62.815 7.392C63.2843 6.51733 63.9297 5.83467 64.751 5.344C65.583 4.85333 66.5483 4.608 67.647 4.608C68.7563 4.608 69.7217 4.85333 70.543 5.344C71.375 5.83467 72.0203 6.51733 72.479 7.392C72.9377 8.256 73.167 9.25867 73.167 10.4C73.167 11.5413 72.9377 12.5493 72.479 13.424C72.0203 14.2987 71.375 14.9813 70.543 15.472C69.7217 15.952 68.7563 16.192 67.647 16.192ZM67.647 15.008C68.4683 15.008 69.1883 14.8267 69.807 14.464C70.4363 14.0907 70.9217 13.5627 71.263 12.88C71.615 12.1867 71.791 11.36 71.791 10.4C71.791 9.44 71.615 8.61867 71.263 7.936C70.9217 7.25333 70.4363 6.73067 69.807 6.368C69.1883 5.99467 68.4683 5.808 67.647 5.808C66.8257 5.808 66.1003 5.99467 65.471 6.368C64.8523 6.73067 64.367 7.25333 64.015 7.936C63.6737 8.61867 63.503 9.44 63.503 10.4C63.503 11.36 63.6737 12.1867 64.015 12.88C64.367 13.5627 64.8523 14.0907 65.471 14.464C66.1003 14.8267 66.8257 15.008 67.647 15.008ZM75.1059 16V4.8H78.7219C79.5965 4.8 80.3112 4.944 80.8659 5.232C81.4205 5.52 81.8312 5.91467 82.0979 6.416C82.3645 6.91733 82.4979 7.472 82.4979 8.08C82.4979 8.784 82.3059 9.41867 81.9219 9.984C81.5485 10.5493 80.9619 10.9493 80.1619 11.184L82.6099 16H81.0259L78.7539 11.376H78.6579H76.4499V16H75.1059ZM76.4499 10.32H78.6259C79.4899 10.32 80.1192 10.112 80.5139 9.696C80.9085 9.28 81.1059 8.74667 81.1059 8.096C81.1059 7.43467 80.9085 6.912 80.5139 6.528C80.1299 6.13333 79.4952 5.936 78.6099 5.936H76.4499V10.32ZM84.5903 16V4.8H88.2063C89.0809 4.8 89.7956 4.944 90.3503 5.232C90.9049 5.52 91.3156 5.91467 91.5823 6.416C91.8489 6.91733 91.9823 7.472 91.9823 8.08C91.9823 8.784 91.7903 9.41867 91.4062 9.984C91.0329 10.5493 90.4463 10.9493 89.6463 11.184L92.0943 16H90.5103L88.2383 11.376H88.1423H85.9343V16H84.5903ZM85.9343 10.32H88.1102C88.9743 10.32 89.6036 10.112 89.9983 9.696C90.3929 9.28 90.5903 8.74667 90.5903 8.096C90.5903 7.43467 90.3929 6.912 89.9983 6.528C89.6143 6.13333 88.9796 5.936 88.0943 5.936H85.9343V10.32ZM94.0746 16V4.8H101.003V5.904H95.4186V9.808H100.523V10.896H95.4186V14.896H101.003V16H94.0746ZM106.674 16.192C105.853 16.192 105.138 16.0427 104.53 15.744C103.922 15.4453 103.453 15.0293 103.122 14.496C102.791 13.9627 102.626 13.344 102.626 12.64H104.034C104.034 13.0773 104.135 13.4827 104.338 13.856C104.541 14.2187 104.834 14.512 105.218 14.736C105.613 14.9493 106.098 15.056 106.674 15.056C107.431 15.056 108.018 14.8747 108.434 14.512C108.85 14.1493 109.058 13.696 109.058 13.152C109.058 12.704 108.962 12.3467 108.77 12.08C108.578 11.8027 108.317 11.5787 107.986 11.408C107.666 11.2373 107.293 11.088 106.866 10.96C106.45 10.832 106.013 10.688 105.554 10.528C104.69 10.2293 104.05 9.86133 103.634 9.424C103.218 8.976 103.01 8.39467 103.01 7.68C102.999 7.08267 103.138 6.55467 103.426 6.096C103.714 5.62667 104.119 5.264 104.642 5.008C105.175 4.74133 105.805 4.608 106.53 4.608C107.245 4.608 107.863 4.74133 108.386 5.008C108.919 5.27467 109.33 5.64267 109.618 6.112C109.917 6.58133 110.071 7.11467 110.082 7.712H108.674C108.674 7.40267 108.594 7.09867 108.434 6.8C108.274 6.49067 108.029 6.24 107.698 6.048C107.378 5.856 106.973 5.76 106.482 5.76C105.874 5.74933 105.373 5.904 104.978 6.224C104.594 6.544 104.402 6.98667 104.402 7.552C104.402 8.032 104.535 8.4 104.802 8.656C105.079 8.912 105.463 9.12533 105.954 9.296C106.445 9.456 107.01 9.64267 107.65 9.856C108.183 10.048 108.663 10.272 109.09 10.528C109.517 10.784 109.847 11.1147 110.082 11.52C110.327 11.9253 110.45 12.4427 110.45 13.072C110.45 13.6053 110.311 14.112 110.034 14.592C109.757 15.0613 109.335 15.4453 108.77 15.744C108.215 16.0427 107.517 16.192 106.674 16.192ZM115.886 16L120.014 4.8H121.438L125.55 16H124.126L123.102 13.12H118.334L117.294 16H115.886ZM118.734 12.032H122.702L120.718 6.496L118.734 12.032ZM127.215 16V4.8H128.559V14.928H133.775V16H127.215ZM139.663 16.192C138.564 16.192 137.599 15.952 136.767 15.472C135.945 14.9813 135.3 14.2987 134.831 13.424C134.372 12.5493 134.143 11.5413 134.143 10.4C134.143 9.25867 134.372 8.256 134.831 7.392C135.3 6.51733 135.945 5.83467 136.767 5.344C137.599 4.85333 138.564 4.608 139.663 4.608C140.772 4.608 141.737 4.85333 142.559 5.344C143.391 5.83467 144.036 6.51733 144.495 7.392C144.953 8.256 145.183 9.25867 145.183 10.4C145.183 11.5413 144.953 12.5493 144.495 13.424C144.036 14.2987 143.391 14.9813 142.559 15.472C141.737 15.952 140.772 16.192 139.663 16.192ZM139.663 15.008C140.484 15.008 141.204 14.8267 141.823 14.464C142.452 14.0907 142.937 13.5627 143.279 12.88C143.631 12.1867 143.807 11.36 143.807 10.4C143.807 9.44 143.631 8.61867 143.279 7.936C142.937 7.25333 142.452 6.73067 141.823 6.368C141.204 5.99467 140.484 5.808 139.663 5.808C138.841 5.808 138.116 5.99467 137.487 6.368C136.868 6.73067 136.383 7.25333 136.031 7.936C135.689 8.61867 135.519 9.44 135.519 10.4C135.519 11.36 135.689 12.1867 136.031 12.88C136.383 13.5627 136.868 14.0907 137.487 14.464C138.116 14.8267 138.841 15.008 139.663 15.008ZM147.122 16V4.8H148.466L154.434 13.776V4.8H155.778V16H154.434L148.466 7.024V16H147.122ZM161.721 16.192C160.899 16.192 160.185 16.0427 159.577 15.744C158.969 15.4453 158.499 15.0293 158.169 14.496C157.838 13.9627 157.673 13.344 157.673 12.64H159.081C159.081 13.0773 159.182 13.4827 159.385 13.856C159.587 14.2187 159.881 14.512 160.265 14.736C160.659 14.9493 161.145 15.056 161.721 15.056C162.478 15.056 163.065 14.8747 163.481 14.512C163.897 14.1493 164.105 13.696 164.105 13.152C164.105 12.704 164.009 12.3467 163.817 12.08C163.625 11.8027 163.363 11.5787 163.033 11.408C162.713 11.2373 162.339 11.088 161.913 10.96C161.497 10.832 161.059 10.688 160.601 10.528C159.737 10.2293 159.097 9.86133 158.681 9.424C158.265 8.976 158.057 8.39467 158.057 7.68C158.046 7.08267 158.185 6.55467 158.473 6.096C158.761 5.62667 159.166 5.264 159.689 5.008C160.222 4.74133 160.851 4.608 161.577 4.608C162.291 4.608 162.91 4.74133 163.433 5.008C163.966 5.27467 164.377 5.64267 164.665 6.112C164.963 6.58133 165.118 7.11467 165.129 7.712H163.721C163.721 7.40267 163.641 7.09867 163.481 6.8C163.321 6.49067 163.075 6.24 162.745 6.048C162.425 5.856 162.019 5.76 161.529 5.76C160.921 5.74933 160.419 5.904 160.025 6.224C159.641 6.544 159.449 6.98667 159.449 7.552C159.449 8.032 159.582 8.4 159.849 8.656C160.126 8.912 160.51 9.12533 161.001 9.296C161.491 9.456 162.057 9.64267 162.697 9.856C163.23 10.048 163.71 10.272 164.137 10.528C164.563 10.784 164.894 11.1147 165.129 11.52C165.374 11.9253 165.497 12.4427 165.497 13.072C165.497 13.6053 165.358 14.112 165.081 14.592C164.803 15.0613 164.382 15.4453 163.817 15.744C163.262 16.0427 162.563 16.192 161.721 16.192ZM172.491 16.192C171.392 16.192 170.427 15.952 169.595 15.472C168.773 14.9813 168.128 14.2987 167.659 13.424C167.2 12.5493 166.971 11.5413 166.971 10.4C166.971 9.25867 167.2 8.256 167.659 7.392C168.128 6.51733 168.773 5.83467 169.595 5.344C170.427 4.85333 171.392 4.608 172.491 4.608C173.6 4.608 174.565 4.85333 175.387 5.344C176.219 5.83467 176.864 6.51733 177.323 7.392C177.781 8.256 178.011 9.25867 178.011 10.4C178.011 11.5413 177.781 12.5493 177.323 13.424C176.864 14.2987 176.219 14.9813 175.387 15.472C174.565 15.952 173.6 16.192 172.491 16.192ZM172.491 15.008C173.312 15.008 174.032 14.8267 174.651 14.464C175.28 14.0907 175.765 13.5627 176.107 12.88C176.459 12.1867 176.635 11.36 176.635 10.4C176.635 9.44 176.459 8.61867 176.107 7.936C175.765 7.25333 175.28 6.73067 174.651 6.368C174.032 5.99467 173.312 5.808 172.491 5.808C171.669 5.808 170.944 5.99467 170.315 6.368C169.696 6.73067 169.211 7.25333 168.859 7.936C168.517 8.61867 168.347 9.44 168.347 10.4C168.347 11.36 168.517 12.1867 168.859 12.88C169.211 13.5627 169.696 14.0907 170.315 14.464C170.944 14.8267 171.669 15.008 172.491 15.008Z" fill="#335062"/>
<path d="M59.096 31.192C57.9973 31.192 57.048 30.952 56.248 30.472C55.4587 29.9813 54.8453 29.304 54.408 28.44C53.9707 27.5653 53.752 26.552 53.752 25.4C53.752 24.2587 53.9707 23.256 54.408 22.392C54.8453 21.5173 55.4587 20.8347 56.248 20.344C57.048 19.8533 57.9973 19.608 59.096 19.608C60.376 19.608 61.416 19.9173 62.216 20.536C63.0267 21.144 63.544 21.9973 63.768 23.096H62.28C62.1093 22.4027 61.7573 21.848 61.224 21.432C60.7013 21.0053 59.992 20.792 59.096 20.792C58.296 20.792 57.5973 20.9787 57 21.352C56.4027 21.7147 55.9387 22.2427 55.608 22.936C55.288 23.6187 55.128 24.44 55.128 25.4C55.128 26.36 55.288 27.1867 55.608 27.88C55.9387 28.5627 56.4027 29.0907 57 29.464C57.5973 29.8267 58.296 30.008 59.096 30.008C59.992 30.008 60.7013 29.8053 61.224 29.4C61.7573 28.984 62.1093 28.4347 62.28 27.752H63.768C63.544 28.8293 63.0267 29.672 62.216 30.28C61.416 30.888 60.376 31.192 59.096 31.192ZM70.7876 31.192C69.689 31.192 68.7236 30.952 67.8916 30.472C67.0703 29.9813 66.425 29.2987 65.9556 28.424C65.497 27.5493 65.2676 26.5413 65.2676 25.4C65.2676 24.2587 65.497 23.256 65.9556 22.392C66.425 21.5173 67.0703 20.8347 67.8916 20.344C68.7236 19.8533 69.689 19.608 70.7876 19.608C71.897 19.608 72.8623 19.8533 73.6836 20.344C74.5156 20.8347 75.161 21.5173 75.6196 22.392C76.0783 23.256 76.3076 24.2587 76.3076 25.4C76.3076 26.5413 76.0783 27.5493 75.6196 28.424C75.161 29.2987 74.5156 29.9813 73.6836 30.472C72.8623 30.952 71.897 31.192 70.7876 31.192ZM70.7876 30.008C71.609 30.008 72.329 29.8267 72.9476 29.464C73.577 29.0907 74.0623 28.5627 74.4036 27.88C74.7556 27.1867 74.9316 26.36 74.9316 25.4C74.9316 24.44 74.7556 23.6187 74.4036 22.936C74.0623 22.2533 73.577 21.7307 72.9476 21.368C72.329 20.9947 71.609 20.808 70.7876 20.808C69.9663 20.808 69.241 20.9947 68.6116 21.368C67.993 21.7307 67.5076 22.2533 67.1556 22.936C66.8143 23.6187 66.6436 24.44 66.6436 25.4C66.6436 26.36 66.8143 27.1867 67.1556 27.88C67.5076 28.5627 67.993 29.0907 68.6116 29.464C69.241 29.8267 69.9663 30.008 70.7876 30.008ZM78.2465 31V19.8H79.5905L85.5585 28.776V19.8H86.9025V31H85.5585L79.5905 22.024V31H78.2465ZM92.8458 31.192C92.0244 31.192 91.3098 31.0427 90.7018 30.744C90.0938 30.4453 89.6244 30.0293 89.2938 29.496C88.9631 28.9627 88.7978 28.344 88.7978 27.64H90.2057C90.2057 28.0773 90.3071 28.4827 90.5098 28.856C90.7124 29.2187 91.0058 29.512 91.3898 29.736C91.7844 29.9493 92.2698 30.056 92.8458 30.056C93.6031 30.056 94.1898 29.8747 94.6058 29.512C95.0218 29.1493 95.2298 28.696 95.2298 28.152C95.2298 27.704 95.1338 27.3467 94.9418 27.08C94.7498 26.8027 94.4884 26.5787 94.1578 26.408C93.8378 26.2373 93.4644 26.088 93.0378 25.96C92.6218 25.832 92.1844 25.688 91.7258 25.528C90.8618 25.2293 90.2218 24.8613 89.8058 24.424C89.3898 23.976 89.1818 23.3947 89.1818 22.68C89.1711 22.0827 89.3098 21.5547 89.5978 21.096C89.8858 20.6267 90.2911 20.264 90.8138 20.008C91.3471 19.7413 91.9764 19.608 92.7018 19.608C93.4164 19.608 94.0351 19.7413 94.5578 20.008C95.0911 20.2747 95.5018 20.6427 95.7898 21.112C96.0884 21.5813 96.2431 22.1147 96.2538 22.712H94.8458C94.8458 22.4027 94.7658 22.0987 94.6058 21.8C94.4458 21.4907 94.2004 21.24 93.8698 21.048C93.5498 20.856 93.1444 20.76 92.6538 20.76C92.0458 20.7493 91.5444 20.904 91.1498 21.224C90.7658 21.544 90.5738 21.9867 90.5738 22.552C90.5738 23.032 90.7071 23.4 90.9738 23.656C91.2511 23.912 91.6351 24.1253 92.1258 24.296C92.6164 24.456 93.1818 24.6427 93.8218 24.856C94.3551 25.048 94.8351 25.272 95.2618 25.528C95.6884 25.784 96.0191 26.1147 96.2538 26.52C96.4991 26.9253 96.6218 27.4427 96.6218 28.072C96.6218 28.6053 96.4831 29.112 96.2058 29.592C95.9284 30.0613 95.5071 30.4453 94.9418 30.744C94.3871 31.0427 93.6884 31.192 92.8458 31.192ZM100.886 31V20.904H97.5421V19.8H105.574V20.904H102.23V31H100.886ZM107.215 31V19.8H110.831C111.706 19.8 112.421 19.944 112.975 20.232C113.53 20.52 113.941 20.9147 114.207 21.416C114.474 21.9173 114.607 22.472 114.607 23.08C114.607 23.784 114.415 24.4187 114.031 24.984C113.658 25.5493 113.071 25.9493 112.271 26.184L114.719 31H113.135L110.863 26.376H110.767H108.559V31H107.215ZM108.559 25.32H110.735C111.599 25.32 112.229 25.112 112.623 24.696C113.018 24.28 113.215 23.7467 113.215 23.096C113.215 22.4347 113.018 21.912 112.623 21.528C112.239 21.1333 111.605 20.936 110.719 20.936H108.559V25.32ZM120.748 31.192C119.98 31.192 119.281 31.0427 118.652 30.744C118.033 30.4347 117.537 29.96 117.164 29.32C116.79 28.68 116.604 27.864 116.604 26.872V19.8H117.948V26.888C117.948 27.976 118.209 28.7653 118.732 29.256C119.254 29.7467 119.937 29.992 120.78 29.992C121.622 29.992 122.3 29.7467 122.812 29.256C123.324 28.7653 123.58 27.976 123.58 26.888V19.8H124.924V26.872C124.924 27.864 124.737 28.68 124.364 29.32C123.99 29.96 123.489 30.4347 122.86 30.744C122.23 31.0427 121.526 31.192 120.748 31.192ZM132.112 31.192C131.013 31.192 130.064 30.952 129.264 30.472C128.474 29.9813 127.861 29.304 127.424 28.44C126.986 27.5653 126.768 26.552 126.768 25.4C126.768 24.2587 126.986 23.256 127.424 22.392C127.861 21.5173 128.474 20.8347 129.264 20.344C130.064 19.8533 131.013 19.608 132.112 19.608C133.392 19.608 134.432 19.9173 135.232 20.536C136.042 21.144 136.56 21.9973 136.784 23.096H135.296C135.125 22.4027 134.773 21.848 134.24 21.432C133.717 21.0053 133.008 20.792 132.112 20.792C131.312 20.792 130.613 20.9787 130.016 21.352C129.418 21.7147 128.954 22.2427 128.624 22.936C128.304 23.6187 128.144 24.44 128.144 25.4C128.144 26.36 128.304 27.1867 128.624 27.88C128.954 28.5627 129.418 29.0907 130.016 29.464C130.613 29.8267 131.312 30.008 132.112 30.008C133.008 30.008 133.717 29.8053 134.24 29.4C134.773 28.984 135.125 28.4347 135.296 27.752H136.784C136.56 28.8293 136.042 29.672 135.232 30.28C134.432 30.888 133.392 31.192 132.112 31.192ZM141.074 31V20.904H137.73V19.8H145.762V20.904H142.418V31H141.074ZM151.913 31.192C150.814 31.192 149.849 30.952 149.017 30.472C148.195 29.9813 147.55 29.2987 147.081 28.424C146.622 27.5493 146.393 26.5413 146.393 25.4C146.393 24.2587 146.622 23.256 147.081 22.392C147.55 21.5173 148.195 20.8347 149.017 20.344C149.849 19.8533 150.814 19.608 151.913 19.608C153.022 19.608 153.987 19.8533 154.809 20.344C155.641 20.8347 156.286 21.5173 156.745 22.392C157.203 23.256 157.433 24.2587 157.433 25.4C157.433 26.5413 157.203 27.5493 156.745 28.424C156.286 29.2987 155.641 29.9813 154.809 30.472C153.987 30.952 153.022 31.192 151.913 31.192ZM151.913 30.008C152.734 30.008 153.454 29.8267 154.073 29.464C154.702 29.0907 155.187 28.5627 155.529 27.88C155.881 27.1867 156.057 26.36 156.057 25.4C156.057 24.44 155.881 23.6187 155.529 22.936C155.187 22.2533 154.702 21.7307 154.073 21.368C153.454 20.9947 152.734 20.808 151.913 20.808C151.091 20.808 150.366 20.9947 149.737 21.368C149.118 21.7307 148.633 22.2533 148.281 22.936C147.939 23.6187 147.769 24.44 147.769 25.4C147.769 26.36 147.939 27.1867 148.281 27.88C148.633 28.5627 149.118 29.0907 149.737 29.464C150.366 29.8267 151.091 30.008 151.913 30.008ZM159.372 31V19.8H162.988C163.862 19.8 164.577 19.944 165.132 20.232C165.686 20.52 166.097 20.9147 166.364 21.416C166.63 21.9173 166.764 22.472 166.764 23.08C166.764 23.784 166.572 24.4187 166.188 24.984C165.814 25.5493 165.228 25.9493 164.428 26.184L166.876 31H165.292L163.02 26.376H162.924H160.716V31H159.372ZM160.716 25.32H162.891C163.756 25.32 164.385 25.112 164.78 24.696C165.174 24.28 165.372 23.7467 165.372 23.096C165.372 22.4347 165.174 21.912 164.78 21.528C164.396 21.1333 163.761 20.936 162.876 20.936H160.716V25.32ZM168.152 31L172.28 19.8H173.704L177.816 31H176.392L175.368 28.12H170.6L169.56 31H168.152ZM171 27.032H174.968L172.984 21.496L171 27.032Z" fill="#335062"/>
</svg>
